# xmcd
#
# Track frame offsets: 
#        183
#        19570
#        36660
#        55013
#        77103
#        93173
#        119460
#        141888
#        157945
#        174113
#        191008
#        207150
#        223738
#        239640
#        260525
#        275823
#        292023
#        308878
#        326438
#
# Disc length: 4580 seconds
#
# Revision: 0
# Processed by: cddbd v1.5.2PL0 Copyright (c) Steve Scherf et al.
# Submitted via: ExactAudioCopy v1.0b6
#
DISCID=1911e213
DTITLE=Aufsteiger - Aufsteiger
DYEAR=1900
DGENRE=Rock
TTITLE0=Terry Hoax - Live All
TTITLE1=The Land. - Mama told me not to come
TTITLE2=Paul Rodgers - Louisianna Blues
TTITLE3=Gianna Nannini - Radio Baccano
TTITLE4=Scam Luiz - People are people
TTITLE5=Hothouse Flowers - Isn´t It Amazing
TTITLE6=Grant Lee Buffalo - Fuzzy
TTITLE7=Back To The Planet - Daydream
TTITLE8=Joe Roberts - Back in my Life
TTITLE9=Gabrielle - Dreams
TTITLE10=Ace Of Base - Happy Nation
TTITLE11=New Order - World
TTITLE12=Camouflage - Jelousy
TTITLE13=Utah Saints - I Want You
TTITLE14=Odyssey - Let yourself go!
TTITLE15=Mambomania - Mango Mango Mague
TTITLE16=Peter Fessler - Put it into jazz (7" Remix)
TTITLE17=Khaled - Serbi Serbi
TTITLE18=Dein Ding - Ganz schön feist
EXTD=
EXTT0=
EXTT1=
EXTT2=
EXTT3=
EXTT4=
EXTT5=
EXTT6=
EXTT7=
EXTT8=
EXTT9=
EXTT10=
EXTT11=
EXTT12=
EXTT13=
EXTT14=
EXTT15=
EXTT16=
EXTT17=
EXTT18=
PLAYORDER=
